<?xml version="1.0" encoding="UTF-8"?><svg id="a" xmlns="http://www.w3.org/2000/svg" xmlns:xlink="http://www.w3.org/1999/xlink" viewBox="0 0 198.43 128.98"><defs><style>.c{opacity:.05;}.d{fill:none;}.e{clip-path:url(#b);}</style><clipPath id="b"><rect class="d" y="0" width="198.43" height="128.98"/></clipPath></defs><g class="e"><path class="c" d="M131.77,48.05c.34.53.45.96.47,1.36-.11.74-.71,1.21-1.45,1.11-.1-.02-.16.02-.19-.04-.33-.12-.71-.46-1.05-.98l-4.42-6.8c-.3-.47-.45-.96-.49-1.27.02-.35.2-.71.53-.85.23-.15.45-.21.76-.24.35.02.64.09.93.15l7.6,2.73-2.97-4.57c-.3-.47-.51-.92-.49-1.27.08-.64.69-1.12,1.39-1.07l.19.04c.33.12.65.49.96.96l4.53,6.98c.3.47.47.86.45,1.21s-.24.66-.53.85c-.23.15-.51.25-.76.24-.35-.02-.64-.09-.97-.21l-7.37-2.63,2.89,4.46M121.76,54.55c.34.53.49,1.01.51,1.42-.11.74-.77,1.25-1.5,1.14-.1-.02-.16.02-.19-.04-.37-.18-.71-.46-1.09-1.04l-4.38-6.74c-.3-.47-.45-.96-.49-1.27.02-.35.24-.66.53-.85.23-.15.45-.21.7-.2.35.02.64.09.93.15l7.47,2.66-2.89-4.46c-.34-.53-.49-1.01-.51-1.42.07-.79.89-1.33,1.6-1.12l.1.02c.37.18.65.49,1,1.02l4.53,6.98c.3.47.47.86.41,1.15-.02.35-.24.66-.53.85-.23.15-.51.25-.76.24-.35-.02-.64-.09-.97-.21l-7.33-2.58,2.82,4.34.06-.04ZM111.81,57.67l2.28-1.48-3.4-2.8,1.11,4.28ZM112.48,59.99l.26,1.17c.13.33.11.68.05.97-.06.29-.26.5-.49.65-.29.19-.6.22-.95.2-.29-.06-.6-.28-.79-.57-.08-.12-.15-.23-.17-.39-.08-.12-.06-.21-.13-.33l-1.86-8.38c-.07-.37-.07-.87,0-1.42.14-.42.42-.77.77-1s.78-.34,1.16-.26c.44.04.91.24,1.25.52l6.86,5.3c.13.08.21.2.38.33.13.08.17.14.25.26.19.29.23.6.16.89-.12.33-.28.6-.57.79-.23.15-.6.22-.85.22-.39-.08-.69-.3-.94-.55l-.86-.69s-3.51,2.28-3.51,2.28ZM98.84,69.1l-3.06-7.27c-.23-.6-.38-1.09-.29-1.48s.36-.73.77-1c.35-.23.78-.34,1.19-.35.44.04.85.28,1.14.6l5.16,4.74-2.39-6.62c-.17-.39-.22-.86-.08-1.28s.42-.77.75-.9c.47-.3.9-.41,1.28-.33s.83.38,1.33.89l5.32,5.88c.08.12.17.14.25.26l.15.23c.19.29.26.66.24,1.01-.08.39-.34.64-.63.83s-.6.22-.89.16c-.42-.14-.73-.36-.96-.71l-4.4-5.23c.96,2.63,1.58,4.48,1.95,5.57s.52,1.83.56,2.14c.02.16-.02.35-.16.52-.14.17-.28.35-.51.5-.29.19-.62.32-.97.3-.39-.08-.69-.3-.94-.55l-5.21-4.95,2.86,6.07c.28.57.4.99.33,1.28-.02.35-.24.66-.53.85s-.66.26-.95.2c-.39-.08-.64-.34-.83-.63l-.19-.29c-.13-.08-.15-.23-.27-.41h0ZM91.44,62.57c.53-.34,1.01-.49,1.42-.5s.71.2.94.55c.19.29.26.66.09,1.03s-.49.65-1.08,1.03l-1.87,1.22,1.18,1.82,1.52-.99c.53-.34.95-.45,1.32-.53.35.02.71.2.85.53.19.29.26.66.14.99-.12.33-.49.65-1.02.99l-1.52.99,1.18,1.82,1.93-1.25c.53-.34.97-.55,1.38-.56s.71.2.9.5.26.66.09,1.03-.63.57-1.15.92l-2.63,1.71c-.59.38-1.07.53-1.42.5-.35-.02-.69-.3-1.04-.83l-4.38-6.74c-.38-.59-.53-1.07-.45-1.46.08-.39.42-.77,1-1.15l2.61-1.61ZM87.64,73.37l-.76.49c-.53.34-.92.51-1.26.49-.35-.02-.66-.24-.85-.53s-.26-.66-.14-.99c.12-.33.43-.61.96-.96l1.58-1.03c.53-.34.95-.45,1.34-.37.39.08.73.36,1.04.83.84,1.29,1.11,2.61.89,3.93-.23,1.32-1.01,2.41-2.3,3.25s-2.65,1.05-4.04.7-2.56-1.25-3.51-2.72c-.95-1.47-1.3-2.91-1.04-4.41.25-1.41,1.11-2.64,2.52-3.55.94-.61,1.87-.96,2.78-.97.89.09,1.51.27,1.85.8.15.23.25.51.22.86-.06.29-.16.52-.45.71-.18.11-.6.22-1.36.22-.66.01-1.26.24-1.83.52-.64.42-1.14,1.07-1.2,1.86-.07.79.12,1.59.69,2.47s1.2,1.47,2.01,1.69c.75.26,1.53.17,2.19-.34.47-.3.88-.82,1-1.4.14-.42.03-1.1-.33-1.54h0ZM75.29,81.39l2.28-1.48-3.4-2.8,1.11,4.28ZM75.96,83.71l.26,1.17c.13.33.11.68.05.97s-.26.5-.49.65c-.29.19-.6.22-.95.2-.29-.06-.6-.28-.79-.57-.08-.12-.15-.23-.17-.39-.08-.12-.06-.21-.13-.33l-1.92-8.34c-.01-.41,0-.91.05-1.45.14-.42.42-.77.77-1s.78-.34,1.16-.26c.44.04.91.24,1.25.52l6.86,5.3c.17.14.31.22.38.33s.17.14.25.26c.19.29.23.6.16.89-.12.33-.28.6-.57.79-.23.15-.6.22-.85.22-.39-.08-.69-.3-.94-.55l-.86-.69-3.51,2.28ZM65.22,87.93l1.56,2.4c.34.53.51.92.49,1.27s-.2.71-.53.85c-.25.25-.66.26-1.05.18-.33-.12-.65-.49-.96-.96l-4.3-6.63c-.34-.53-.51-.92-.53-1.32,0-.25.18-.62.57-.79.29-.19.66-.26,1.03-.08.33.12.65.49,1,1.02l1.45,2.23,3.92-2.55-1.52-2.35c-.34-.53-.45-.96-.47-1.36.11-.74.83-1.29,1.6-1.12l.1.02c.33.12.65.49.96.96l4.27,6.57c.34.53.45.96.43,1.3-.11.74-.77,1.25-1.5,1.14-.1-.02-.16.02-.19-.04-.33-.12-.71-.46-1.02-.92l-1.56-2.4-3.8,2.47.08.12Z"/><path class="c" d="M32.56,48.05c.34.53.45.96.47,1.36-.11.74-.71,1.21-1.45,1.11-.1-.02-.16.02-.19-.04-.33-.12-.71-.46-1.05-.98l-4.42-6.8c-.3-.47-.45-.96-.49-1.27.02-.35.2-.71.53-.85.23-.15.45-.21.76-.24.35.02.64.09.93.15l7.6,2.73-2.97-4.57c-.3-.47-.51-.92-.49-1.27.08-.64.69-1.12,1.39-1.07l.19.04c.33.12.65.49.96.96l4.53,6.98c.3.47.47.86.45,1.21s-.24.66-.53.85c-.23.15-.51.25-.76.24-.35-.02-.64-.09-.97-.21l-7.37-2.63,2.89,4.46M22.55,54.55c.34.53.49,1.01.51,1.42-.11.74-.77,1.25-1.5,1.14-.1-.02-.16.02-.19-.04-.37-.18-.71-.46-1.09-1.04l-4.38-6.74c-.3-.47-.45-.96-.49-1.27.02-.35.24-.66.53-.85.23-.15.45-.21.7-.2.35.02.64.09.93.15l7.47,2.66-2.89-4.46c-.34-.53-.49-1.01-.51-1.42.07-.79.89-1.33,1.6-1.12l.1.02c.37.18.65.49,1,1.02l4.53,6.98c.3.47.47.86.41,1.15-.02.35-.24.66-.53.85-.23.15-.51.25-.76.24-.35-.02-.64-.09-.97-.21l-7.33-2.58,2.82,4.34.06-.04ZM12.6,57.67l2.28-1.48-3.4-2.8,1.11,4.28ZM13.27,59.99l.26,1.17c.13.33.11.68.05.97-.06.29-.26.5-.49.65-.29.19-.6.22-.95.2-.29-.06-.6-.28-.79-.57-.08-.12-.15-.23-.17-.39-.08-.12-.06-.21-.13-.33l-1.86-8.38c-.07-.37-.07-.87,0-1.42.14-.42.42-.77.77-1s.78-.34,1.16-.26c.44.04.91.24,1.25.52l6.86,5.3c.13.08.21.2.38.33.13.08.17.14.25.26.19.29.23.6.16.89-.12.33-.28.6-.57.79-.23.15-.6.22-.85.22-.39-.08-.69-.3-.94-.55l-.86-.69s-3.51,2.28-3.51,2.28ZM-.37,69.1l-3.06-7.27c-.23-.6-.38-1.09-.29-1.48s.36-.73.77-1c.35-.23.78-.34,1.19-.35.44.04.85.28,1.14.6l5.16,4.74-2.39-6.62c-.17-.39-.22-.86-.08-1.28s.42-.77.75-.9c.47-.3.9-.41,1.28-.33s.83.38,1.33.89l5.32,5.88c.08.12.17.14.25.26l.15.23c.19.29.26.66.24,1.01-.08.39-.34.64-.63.83s-.6.22-.89.16c-.42-.14-.73-.36-.96-.71l-4.4-5.23c.96,2.63,1.58,4.48,1.95,5.57s.52,1.83.56,2.14c.02.16-.02.35-.16.52-.14.17-.28.35-.51.5-.29.19-.62.32-.97.3-.39-.08-.69-.3-.94-.55l-5.21-4.95,2.86,6.07c.28.57.4.99.33,1.28-.02.35-.24.66-.53.85s-.66.26-.95.2c-.39-.08-.64-.34-.83-.63l-.19-.29c-.13-.08-.15-.23-.27-.41H-.37ZM-7.77,62.57c.53-.34,1.01-.49,1.42-.5s.71.2.94.55c.19.29.26.66.09,1.03s-.49.65-1.08,1.03l-1.87,1.22,1.18,1.82,1.52-.99c.53-.34.95-.45,1.32-.53.35.02.71.2.85.53.19.29.26.66.14.99-.12.33-.49.65-1.02.99l-1.52.99,1.18,1.82,1.93-1.25c.53-.34.97-.55,1.38-.56s.71.2.9.5.26.66.09,1.03-.63.57-1.15.92l-2.63,1.71c-.59.38-1.07.53-1.42.5-.35-.02-.69-.3-1.04-.83l-4.38-6.74c-.38-.59-.53-1.07-.45-1.46.08-.39.42-.77,1-1.15l2.61-1.61ZM-11.57,73.37l-.76.49c-.53.34-.92.51-1.26.49-.35-.02-.66-.24-.85-.53s-.26-.66-.14-.99c.12-.33.43-.61.96-.96l1.58-1.03c.53-.34.95-.45,1.34-.37.39.08.73.36,1.04.83.84,1.29,1.11,2.61.89,3.93-.23,1.32-1.01,2.41-2.3,3.25s-2.65,1.05-4.04.7-2.56-1.25-3.51-2.72c-.95-1.47-1.3-2.91-1.04-4.41.25-1.41,1.11-2.64,2.52-3.55.94-.61,1.87-.96,2.78-.97.89.09,1.51.27,1.85.8.15.23.25.51.22.86-.06.29-.16.52-.45.71-.18.11-.6.22-1.36.22-.66.01-1.26.24-1.83.52-.64.42-1.14,1.07-1.2,1.86-.07.79.12,1.59.69,2.47.57.88,1.2,1.47,2.01,1.69.75.26,1.53.17,2.19-.34.47-.3.88-.82,1-1.4.14-.42.03-1.1-.33-1.54h0ZM-23.92,81.39l2.28-1.48-3.4-2.8,1.11,4.28ZM-23.25,83.71l.26,1.17c.13.33.11.68.05.97s-.26.5-.49.65c-.29.19-.6.22-.95.2-.29-.06-.6-.28-.79-.57-.08-.12-.15-.23-.17-.39-.08-.12-.06-.21-.13-.33l-1.92-8.34c-.01-.41,0-.91.05-1.45.14-.42.42-.77.77-1s.78-.34,1.16-.26c.44.04.91.24,1.25.52l6.86,5.3c.17.14.31.22.38.33s.17.14.25.26c.19.29.23.6.16.89-.12.33-.28.6-.57.79-.23.15-.6.22-.85.22-.39-.08-.69-.3-.94-.55l-.86-.69-3.51,2.28ZM-33.99,87.93l1.56,2.4c.34.53.51.92.49,1.27s-.2.71-.53.85c-.25.25-.66.26-1.05.18-.33-.12-.65-.49-.96-.96l-4.3-6.63c-.34-.53-.51-.92-.53-1.32,0-.25.18-.62.57-.79.29-.19.66-.26,1.03-.08.33.12.65.49,1,1.02l1.45,2.23,3.92-2.55-1.52-2.35c-.34-.53-.45-.96-.47-1.36.11-.74.83-1.29,1.6-1.12l.1.02c.33.12.65.49.96.96l4.27,6.57c.34.53.45.96.43,1.3-.11.74-.77,1.25-1.5,1.14-.1-.02-.16.02-.19-.04-.33-.12-.71-.46-1.02-.92l-1.56-2.4-3.8,2.47.08.12Z"/><path class="c" d="M230.98,48.05c.34.53.45.96.47,1.36-.11.74-.71,1.21-1.45,1.11-.1-.02-.16.02-.19-.04-.33-.12-.71-.46-1.05-.98l-4.42-6.8c-.3-.47-.45-.96-.49-1.27.02-.35.2-.71.53-.85.23-.15.45-.21.76-.24.35.02.64.09.93.15l7.6,2.73-2.97-4.57c-.3-.47-.51-.92-.49-1.27.08-.64.69-1.12,1.39-1.07l.19.04c.33.12.65.49.96.96l4.53,6.98c.3.47.47.86.45,1.21s-.24.66-.53.85c-.23.15-.51.25-.76.24-.35-.02-.64-.09-.97-.21l-7.37-2.63,2.89,4.46M220.98,54.55c.34.53.49,1.01.51,1.42-.11.74-.77,1.25-1.5,1.14-.1-.02-.16.02-.19-.04-.37-.18-.71-.46-1.09-1.04l-4.38-6.74c-.3-.47-.45-.96-.49-1.27.02-.35.24-.66.53-.85.23-.15.45-.21.7-.2.35.02.64.09.93.15l7.47,2.66-2.89-4.46c-.34-.53-.49-1.01-.51-1.42.07-.79.89-1.33,1.6-1.12l.1.02c.37.18.65.49,1,1.02l4.53,6.98c.3.47.47.86.41,1.15-.02.35-.24.66-.53.85-.23.15-.51.25-.76.24-.35-.02-.64-.09-.97-.21l-7.33-2.58,2.82,4.34.06-.04ZM211.02,57.67l2.28-1.48-3.4-2.8,1.11,4.28ZM211.69,59.99l.26,1.17c.13.33.11.68.05.97-.06.29-.26.5-.49.65-.29.19-.6.22-.95.2-.29-.06-.6-.28-.79-.57-.08-.12-.15-.23-.17-.39-.08-.12-.06-.21-.13-.33l-1.86-8.38c-.07-.37-.07-.87,0-1.42.14-.42.42-.77.77-1s.78-.34,1.16-.26c.44.04.91.24,1.25.52l6.86,5.3c.13.08.21.2.38.33.13.08.17.14.25.26.19.29.23.6.16.89-.12.33-.28.6-.57.79-.23.15-.6.22-.85.22-.39-.08-.69-.3-.94-.55l-.86-.69s-3.51,2.28-3.51,2.28ZM198.05,69.1l-3.06-7.27c-.23-.6-.38-1.09-.29-1.48s.36-.73.77-1c.35-.23.78-.34,1.19-.35.44.04.85.28,1.14.6l5.16,4.74-2.39-6.62c-.17-.39-.22-.86-.08-1.28s.42-.77.75-.9c.47-.3.9-.41,1.28-.33s.83.38,1.33.89l5.32,5.88c.08.12.17.14.25.26l.15.23c.19.29.26.66.24,1.01-.08.39-.34.64-.63.83s-.6.22-.89.16c-.42-.14-.73-.36-.96-.71l-4.4-5.23c.96,2.63,1.58,4.48,1.95,5.57.38,1.09.52,1.83.56,2.14.02.16-.02.35-.16.52-.14.17-.28.35-.51.5-.29.19-.62.32-.97.3-.39-.08-.69-.3-.94-.55l-5.21-4.95,2.86,6.07c.28.57.4.99.33,1.28-.02.35-.24.66-.53.85s-.66.26-.95.2c-.39-.08-.64-.34-.83-.63l-.19-.29c-.13-.08-.15-.23-.27-.41h0ZM190.65,62.57c.53-.34,1.01-.49,1.42-.5s.71.2.94.55c.19.29.26.66.09,1.03s-.49.65-1.08,1.03l-1.87,1.22,1.18,1.82,1.52-.99c.53-.34.95-.45,1.32-.53.35.02.71.2.85.53.19.29.26.66.14.99-.12.33-.49.65-1.02.99l-1.52.99,1.18,1.82,1.93-1.25c.53-.34.97-.55,1.38-.56s.71.2.9.5.26.66.09,1.03-.63.57-1.15.92l-2.63,1.71c-.59.38-1.07.53-1.42.5-.35-.02-.69-.3-1.04-.83l-4.38-6.74c-.38-.59-.53-1.07-.45-1.46.08-.39.42-.77,1-1.15l2.61-1.61ZM186.85,73.37l-.76.49c-.53.34-.92.51-1.26.49-.35-.02-.66-.24-.85-.53s-.26-.66-.14-.99c.12-.33.43-.61.96-.96l1.58-1.03c.53-.34.95-.45,1.34-.37.39.08.73.36,1.04.83.84,1.29,1.11,2.61.89,3.93s-1.01,2.41-2.3,3.25-2.65,1.05-4.04.7-2.56-1.25-3.51-2.72c-.95-1.47-1.3-2.91-1.04-4.41.25-1.41,1.11-2.64,2.52-3.55.94-.61,1.87-.96,2.78-.97.89.09,1.51.27,1.85.8.15.23.25.51.22.86-.06.29-.16.52-.45.71-.18.11-.6.22-1.36.22-.66.01-1.26.24-1.83.52-.64.42-1.14,1.07-1.2,1.86-.07.79.12,1.59.69,2.47.57.88,1.2,1.47,2.01,1.69.75.26,1.53.17,2.19-.34.47-.3.88-.82,1-1.4.14-.42.03-1.1-.33-1.54h0ZM174.5,81.39l2.28-1.48-3.4-2.8,1.11,4.28ZM175.17,83.71l.26,1.17c.13.33.11.68.05.97s-.26.5-.49.65c-.29.19-.6.22-.95.2-.29-.06-.6-.28-.79-.57-.08-.12-.15-.23-.17-.39-.08-.12-.06-.21-.13-.33l-1.92-8.34c-.01-.41,0-.91.05-1.45.14-.42.42-.77.77-1s.78-.34,1.16-.26c.44.04.91.24,1.25.52l6.86,5.3c.17.14.31.22.38.33s.17.14.25.26c.19.29.23.6.16.89-.12.33-.28.6-.57.79-.23.15-.6.22-.85.22-.39-.08-.69-.3-.94-.55l-.86-.69-3.51,2.28ZM164.43,87.93l1.56,2.4c.34.53.51.92.49,1.27s-.2.71-.53.85c-.25.25-.66.26-1.05.18-.33-.12-.65-.49-.96-.96l-4.3-6.63c-.34-.53-.51-.92-.53-1.32,0-.25.18-.62.57-.79.29-.19.66-.26,1.03-.08.33.12.65.49,1,1.02l1.45,2.23,3.92-2.55-1.52-2.35c-.34-.53-.45-.96-.47-1.36.11-.74.83-1.29,1.6-1.12l.1.02c.33.12.65.49.96.96l4.27,6.57c.34.53.45.96.43,1.3-.11.74-.77,1.25-1.5,1.14-.1-.02-.16.02-.19-.04-.33-.12-.71-.46-1.02-.92l-1.56-2.4-3.8,2.47.08.12Z"/><path class="c" d="M131.77,112.53c.34.53.45.96.47,1.36-.11.74-.71,1.21-1.45,1.11-.1-.02-.16.02-.19-.04-.33-.12-.71-.46-1.05-.98l-4.42-6.8c-.3-.47-.45-.96-.49-1.27.02-.35.2-.71.53-.85.23-.15.45-.21.76-.24.35.02.64.09.93.15l7.6,2.73-2.97-4.57c-.3-.47-.51-.92-.49-1.27.08-.64.69-1.12,1.39-1.07l.19.04c.33.12.65.49.96.96l4.53,6.98c.3.47.47.86.45,1.21s-.24.66-.53.85c-.23.15-.51.25-.76.24-.35-.02-.64-.09-.97-.21l-7.37-2.63,2.89,4.46M121.76,119.03c.34.53.49,1.01.51,1.42-.11.74-.77,1.25-1.5,1.14-.1-.02-.16.02-.19-.04-.37-.18-.71-.46-1.09-1.04l-4.38-6.74c-.3-.47-.45-.96-.49-1.27.02-.35.24-.66.53-.85.23-.15.45-.21.7-.2.35.02.64.09.93.15l7.47,2.66-2.89-4.46c-.34-.53-.49-1.01-.51-1.42.07-.79.89-1.33,1.6-1.12l.1.02c.37.18.65.49,1,1.02l4.53,6.98c.3.47.47.86.41,1.15-.02.35-.24.66-.53.85-.23.15-.51.25-.76.24-.35-.02-.64-.09-.97-.21l-7.33-2.58,2.82,4.34.06-.04ZM111.81,122.16l2.28-1.48-3.4-2.8,1.11,4.28ZM112.48,124.48l.26,1.17c.13.33.11.68.05.97-.06.29-.26.5-.49.65-.29.19-.6.22-.95.2-.29-.06-.6-.28-.79-.57-.08-.12-.15-.23-.17-.39-.08-.12-.06-.21-.13-.33l-1.86-8.38c-.07-.37-.07-.87,0-1.42.14-.42.42-.77.77-1s.78-.34,1.16-.26c.44.04.91.24,1.25.52l6.86,5.3c.13.08.21.2.38.33.13.08.17.14.25.26.19.29.23.6.16.89-.12.33-.28.6-.57.79-.23.15-.6.22-.85.22-.39-.08-.69-.3-.94-.55l-.86-.69s-3.51,2.28-3.51,2.28ZM98.84,133.59l-3.06-7.27c-.23-.6-.38-1.09-.29-1.48s.36-.73.77-1c.35-.23.78-.34,1.19-.35.44.04.85.28,1.14.6l5.16,4.74-2.39-6.62c-.17-.39-.22-.86-.08-1.28s.42-.77.75-.9c.47-.3.9-.41,1.28-.33s.83.38,1.33.89l5.32,5.88c.08.12.17.14.25.26l.15.23c.19.29.26.66.24,1.01-.08.39-.34.64-.63.83s-.6.22-.89.16c-.42-.14-.73-.36-.96-.71l-4.4-5.23c.96,2.63,1.58,4.48,1.95,5.57s.52,1.83.56,2.14c.02.16-.02.35-.16.52-.14.17-.28.35-.51.5-.29.19-.62.32-.97.3-.39-.08-.69-.3-.94-.55l-5.21-4.95,2.86,6.07c.28.57.4.99.33,1.28-.02.35-.24.66-.53.85s-.66.26-.95.2c-.39-.08-.64-.34-.83-.63l-.19-.29c-.13-.08-.15-.23-.27-.41h0ZM91.44,127.05c.53-.34,1.01-.49,1.42-.5s.71.2.94.55c.19.29.26.66.09,1.03s-.49.65-1.08,1.03l-1.87,1.22,1.18,1.82,1.52-.99c.53-.34.95-.45,1.32-.53.35.02.71.2.85.53.19.29.26.66.14.99-.12.33-.49.65-1.02.99l-1.52.99,1.18,1.82,1.93-1.25c.53-.34.97-.55,1.38-.56s.71.2.9.5.26.66.09,1.03-.63.57-1.15.92l-2.63,1.71c-.59.38-1.07.53-1.42.5-.35-.02-.69-.3-1.04-.83l-4.38-6.74c-.38-.59-.53-1.07-.45-1.46.08-.39.42-.77,1-1.15l2.61-1.61ZM87.64,137.86l-.76.49c-.53.34-.92.51-1.26.49-.35-.02-.66-.24-.85-.53s-.26-.66-.14-.99c.12-.33.43-.61.96-.96l1.58-1.03c.53-.34.95-.45,1.34-.37.39.08.73.36,1.04.83.84,1.29,1.11,2.61.89,3.93-.23,1.32-1.01,2.41-2.3,3.25s-2.65,1.05-4.04.7-2.56-1.25-3.51-2.72c-.95-1.47-1.3-2.91-1.04-4.41.25-1.41,1.11-2.64,2.52-3.55.94-.61,1.87-.96,2.78-.97.89.09,1.51.27,1.85.8.15.23.25.51.22.86-.06.29-.16.52-.45.71-.18.11-.6.22-1.36.22-.66.01-1.26.24-1.83.52-.64.42-1.14,1.07-1.2,1.86-.07.79.12,1.59.69,2.47s1.2,1.47,2.01,1.69c.75.26,1.53.17,2.19-.34.47-.3.88-.82,1-1.4.14-.42.03-1.1-.33-1.54h0ZM75.29,145.88l2.28-1.48-3.4-2.8,1.11,4.28ZM75.96,148.2l.26,1.17c.13.33.11.68.05.97s-.26.5-.49.65c-.29.19-.6.22-.95.2-.29-.06-.6-.28-.79-.57-.08-.12-.15-.23-.17-.39-.08-.12-.06-.21-.13-.33l-1.92-8.34c-.01-.41,0-.91.05-1.45.14-.42.42-.77.77-1s.78-.34,1.16-.26c.44.04.91.24,1.25.52l6.86,5.3c.17.14.31.22.38.33s.17.14.25.26c.19.29.23.6.16.89-.12.33-.28.6-.57.79-.23.15-.6.22-.85.22-.39-.08-.69-.3-.94-.55l-.86-.69-3.51,2.28ZM65.22,152.42l1.56,2.4c.34.53.51.92.49,1.27s-.2.71-.53.85c-.25.25-.66.26-1.05.18-.33-.12-.65-.49-.96-.96l-4.3-6.63c-.34-.53-.51-.92-.53-1.32,0-.25.18-.62.57-.79.29-.19.66-.26,1.03-.08.33.12.65.49,1,1.02l1.45,2.23,3.92-2.55-1.52-2.35c-.34-.53-.45-.96-.47-1.36.11-.74.83-1.29,1.6-1.12l.1.02c.33.12.65.49.96.96l4.27,6.57c.34.53.45.96.43,1.3-.11.74-.77,1.25-1.5,1.14-.1-.02-.16.02-.19-.04-.33-.12-.71-.46-1.02-.92l-1.56-2.4-3.8,2.47.08.12Z"/><path class="c" d="M230.98,112.53c.34.53.45.96.47,1.36-.11.74-.71,1.21-1.45,1.11-.1-.02-.16.02-.19-.04-.33-.12-.71-.46-1.05-.98l-4.42-6.8c-.3-.47-.45-.96-.49-1.27.02-.35.2-.71.53-.85.23-.15.45-.21.76-.24.35.02.64.09.93.15l7.6,2.73-2.97-4.57c-.3-.47-.51-.92-.49-1.27.08-.64.69-1.12,1.39-1.07l.19.04c.33.12.65.49.96.96l4.53,6.98c.3.47.47.86.45,1.21s-.24.66-.53.85c-.23.15-.51.25-.76.24-.35-.02-.64-.09-.97-.21l-7.37-2.63,2.89,4.46M220.98,119.03c.34.53.49,1.01.51,1.42-.11.74-.77,1.25-1.5,1.14-.1-.02-.16.02-.19-.04-.37-.18-.71-.46-1.09-1.04l-4.38-6.74c-.3-.47-.45-.96-.49-1.27.02-.35.24-.66.53-.85.23-.15.45-.21.7-.2.35.02.64.09.93.15l7.47,2.66-2.89-4.46c-.34-.53-.49-1.01-.51-1.42.07-.79.89-1.33,1.6-1.12l.1.02c.37.18.65.49,1,1.02l4.53,6.98c.3.47.47.86.41,1.15-.02.35-.24.66-.53.85-.23.15-.51.25-.76.24-.35-.02-.64-.09-.97-.21l-7.33-2.58,2.82,4.34.06-.04ZM211.02,122.16l2.28-1.48-3.4-2.8,1.11,4.28ZM211.69,124.48l.26,1.17c.13.33.11.68.05.97-.06.29-.26.5-.49.65-.29.19-.6.22-.95.2-.29-.06-.6-.28-.79-.57-.08-.12-.15-.23-.17-.39-.08-.12-.06-.21-.13-.33l-1.86-8.38c-.07-.37-.07-.87,0-1.42.14-.42.42-.77.77-1s.78-.34,1.16-.26c.44.04.91.24,1.25.52l6.86,5.3c.13.08.21.2.38.33.13.08.17.14.25.26.19.29.23.6.16.89-.12.33-.28.6-.57.79-.23.15-.6.22-.85.22-.39-.08-.69-.3-.94-.55l-.86-.69s-3.51,2.28-3.51,2.28ZM198.05,133.59l-3.06-7.27c-.23-.6-.38-1.09-.29-1.48s.36-.73.77-1c.35-.23.78-.34,1.19-.35.44.04.85.28,1.14.6l5.16,4.74-2.39-6.62c-.17-.39-.22-.86-.08-1.28s.42-.77.75-.9c.47-.3.9-.41,1.28-.33s.83.38,1.33.89l5.32,5.88c.08.12.17.14.25.26l.15.23c.19.29.26.66.24,1.01-.08.39-.34.64-.63.83s-.6.22-.89.16c-.42-.14-.73-.36-.96-.71l-4.4-5.23c.96,2.63,1.58,4.48,1.95,5.57.38,1.09.52,1.83.56,2.14.02.16-.02.35-.16.52-.14.17-.28.35-.51.5-.29.19-.62.32-.97.3-.39-.08-.69-.3-.94-.55l-5.21-4.95,2.86,6.07c.28.57.4.99.33,1.28-.02.35-.24.66-.53.85s-.66.26-.95.2c-.39-.08-.64-.34-.83-.63l-.19-.29c-.13-.08-.15-.23-.27-.41h0ZM190.65,127.05c.53-.34,1.01-.49,1.42-.5s.71.2.94.55c.19.29.26.66.09,1.03s-.49.65-1.08,1.03l-1.87,1.22,1.18,1.82,1.52-.99c.53-.34.95-.45,1.32-.53.35.02.71.2.85.53.19.29.26.66.14.99-.12.33-.49.65-1.02.99l-1.52.99,1.18,1.82,1.93-1.25c.53-.34.97-.55,1.38-.56s.71.2.9.5.26.66.09,1.03-.63.57-1.15.92l-2.63,1.71c-.59.38-1.07.53-1.42.5-.35-.02-.69-.3-1.04-.83l-4.38-6.74c-.38-.59-.53-1.07-.45-1.46.08-.39.42-.77,1-1.15l2.61-1.61ZM186.85,137.86l-.76.49c-.53.34-.92.51-1.26.49-.35-.02-.66-.24-.85-.53s-.26-.66-.14-.99c.12-.33.43-.61.96-.96l1.58-1.03c.53-.34.95-.45,1.34-.37.39.08.73.36,1.04.83.84,1.29,1.11,2.61.89,3.93s-1.01,2.41-2.3,3.25-2.65,1.05-4.04.7-2.56-1.25-3.51-2.72c-.95-1.47-1.3-2.91-1.04-4.41.25-1.41,1.11-2.64,2.52-3.55.94-.61,1.87-.96,2.78-.97.89.09,1.51.27,1.85.8.15.23.25.51.22.86-.06.29-.16.52-.45.71-.18.11-.6.22-1.36.22-.66.01-1.26.24-1.83.52-.64.42-1.14,1.07-1.2,1.86-.07.79.12,1.59.69,2.47.57.88,1.2,1.47,2.01,1.69.75.26,1.53.17,2.19-.34.47-.3.88-.82,1-1.4.14-.42.03-1.1-.33-1.54h0ZM174.5,145.88l2.28-1.48-3.4-2.8,1.11,4.28ZM175.17,148.2l.26,1.17c.13.33.11.68.05.97s-.26.5-.49.65c-.29.19-.6.22-.95.2-.29-.06-.6-.28-.79-.57-.08-.12-.15-.23-.17-.39-.08-.12-.06-.21-.13-.33l-1.92-8.34c-.01-.41,0-.91.05-1.45.14-.42.42-.77.77-1s.78-.34,1.16-.26c.44.04.91.24,1.25.52l6.86,5.3c.17.14.31.22.38.33s.17.14.25.26c.19.29.23.6.16.89-.12.33-.28.6-.57.79-.23.15-.6.22-.85.22-.39-.08-.69-.3-.94-.55l-.86-.69-3.51,2.28ZM164.43,152.42l1.56,2.4c.34.53.51.92.49,1.27s-.2.71-.53.85c-.25.25-.66.26-1.05.18-.33-.12-.65-.49-.96-.96l-4.3-6.63c-.34-.53-.51-.92-.53-1.32,0-.25.18-.62.57-.79.29-.19.66-.26,1.03-.08.33.12.65.49,1,1.02l1.45,2.23,3.92-2.55-1.52-2.35c-.34-.53-.45-.96-.47-1.36.11-.74.83-1.29,1.6-1.12l.1.02c.33.12.65.49.96.96l4.27,6.57c.34.53.45.96.43,1.3-.11.74-.77,1.25-1.5,1.14-.1-.02-.16.02-.19-.04-.33-.12-.71-.46-1.02-.92l-1.56-2.4-3.8,2.47.08.12Z"/><path class="c" d="M32.56-16.44c.34.53.45.96.47,1.36-.11.74-.71,1.21-1.45,1.11-.1-.02-.16.02-.19-.04-.33-.12-.71-.46-1.05-.98l-4.42-6.8c-.3-.47-.45-.96-.49-1.27.02-.35.2-.71.53-.85.23-.15.45-.21.76-.24.35.02.64.09.93.15l7.6,2.73-2.97-4.57c-.3-.47-.51-.92-.49-1.27.08-.64.69-1.12,1.39-1.07l.19.04c.33.12.65.49.96.96l4.53,6.98c.3.47.47.86.45,1.21s-.24.66-.53.85c-.23.15-.51.25-.76.24-.35-.02-.64-.09-.97-.21l-7.37-2.63,2.89,4.46M22.55-9.94c.34.53.49,1.01.51,1.42-.11.74-.77,1.25-1.5,1.14-.1-.02-.16.02-.19-.04-.37-.18-.71-.46-1.09-1.04l-4.38-6.74c-.3-.47-.45-.96-.49-1.27.02-.35.24-.66.53-.85.23-.15.45-.21.7-.2.35.02.64.09.93.15l7.47,2.66-2.89-4.46c-.34-.53-.49-1.01-.51-1.42.07-.79.89-1.33,1.6-1.12l.1.02c.37.18.65.49,1,1.02l4.53,6.98c.3.47.47.86.41,1.15-.02.35-.24.66-.53.85-.23.15-.51.25-.76.24-.35-.02-.64-.09-.97-.21l-7.33-2.58,2.82,4.34.06-.04ZM12.6-6.81l2.28-1.48-3.4-2.8,1.11,4.28ZM13.27-4.5l.26,1.17c.13.33.11.68.05.97-.06.29-.26.5-.49.65-.29.19-.6.22-.95.2-.29-.06-.6-.28-.79-.57-.08-.12-.15-.23-.17-.39-.08-.12-.06-.21-.13-.33l-1.86-8.38c-.07-.37-.07-.87,0-1.42.14-.42.42-.77.77-1s.78-.34,1.16-.26c.44.04.91.24,1.25.52l6.86,5.3c.13.08.21.2.38.33.13.08.17.14.25.26.19.29.23.6.16.89-.12.33-.28.6-.57.79-.23.15-.6.22-.85.22-.39-.08-.69-.3-.94-.55l-.86-.69s-3.51,2.28-3.51,2.28ZM-.37,4.61L-3.43-2.66c-.23-.6-.38-1.09-.29-1.48s.36-.73.77-1c.35-.23.78-.34,1.19-.35.44.04.85.28,1.14.6L4.52-.15l-2.39-6.62c-.17-.39-.22-.86-.08-1.28s.42-.77.75-.9c.47-.3.9-.41,1.28-.33s.83.38,1.33.89l5.32,5.88c.08.12.17.14.25.26l.15.23c.19.29.26.66.24,1.01-.08.39-.34.64-.63.83s-.6.22-.89.16c-.42-.14-.73-.36-.96-.71l-4.4-5.23c.96,2.63,1.58,4.48,1.95,5.57s.52,1.83.56,2.14c.02.16-.02.35-.16.52-.14.17-.28.35-.51.5-.29.19-.62.32-.97.3-.39-.08-.69-.3-.94-.55L-.8-2.45,2.06,3.61c.28.57.4.99.33,1.28-.02.35-.24.66-.53.85s-.66.26-.95.2c-.39-.08-.64-.34-.83-.63l-.19-.29c-.13-.08-.15-.23-.27-.41H-.37ZM-7.77-1.92c.53-.34,1.01-.49,1.42-.5s.71.2.94.55c.19.29.26.66.09,1.03s-.49.65-1.08,1.03l-1.87,1.22,1.18,1.82,1.52-.99c.53-.34.95-.45,1.32-.53.35.02.71.2.85.53.19.29.26.66.14.99-.12.33-.49.65-1.02.99l-1.52.99,1.18,1.82,1.93-1.25c.53-.34.97-.55,1.38-.56s.71.2.9.5.26.66.09,1.03-.63.57-1.15.92l-2.63,1.71c-.59.38-1.07.53-1.42.5-.35-.02-.69-.3-1.04-.83l-4.38-6.74c-.38-.59-.53-1.07-.45-1.46.08-.39.42-.77,1-1.15l2.61-1.61ZM-11.57,8.88l-.76.49c-.53.34-.92.51-1.26.49-.35-.02-.66-.24-.85-.53s-.26-.66-.14-.99c.12-.33.43-.61.96-.96l1.58-1.03c.53-.34.95-.45,1.34-.37.39.08.73.36,1.04.83.84,1.29,1.11,2.61.89,3.93-.23,1.32-1.01,2.41-2.3,3.25s-2.65,1.05-4.04.7-2.56-1.25-3.51-2.72c-.95-1.47-1.3-2.91-1.04-4.41.25-1.41,1.11-2.64,2.52-3.55.94-.61,1.87-.96,2.78-.97.89.09,1.51.27,1.85.8.15.23.25.51.22.86-.06.29-.16.52-.45.71-.18.11-.6.22-1.36.22-.66.01-1.26.24-1.83.52-.64.42-1.14,1.07-1.2,1.86-.07.79.12,1.59.69,2.47.57.88,1.2,1.47,2.01,1.69.75.26,1.53.17,2.19-.34.47-.3.88-.82,1-1.4.14-.42.03-1.1-.33-1.54h0ZM-23.92,16.9l2.28-1.48-3.4-2.8,1.11,4.28ZM-23.25,19.22l.26,1.17c.13.33.11.68.05.97s-.26.5-.49.65c-.29.19-.6.22-.95.2-.29-.06-.6-.28-.79-.57-.08-.12-.15-.23-.17-.39-.08-.12-.06-.21-.13-.33l-1.92-8.34c-.01-.41,0-.91.05-1.45.14-.42.42-.77.77-1s.78-.34,1.16-.26c.44.04.91.24,1.25.52l6.86,5.3c.17.14.31.22.38.33s.17.14.25.26c.19.29.23.6.16.89-.12.33-.28.6-.57.79-.23.15-.6.22-.85.22-.39-.08-.69-.3-.94-.55l-.86-.69-3.51,2.28ZM-33.99,23.44l1.56,2.4c.34.53.51.92.49,1.27s-.2.71-.53.85c-.25.25-.66.26-1.05.18-.33-.12-.65-.49-.96-.96l-4.3-6.63c-.34-.53-.51-.92-.53-1.32,0-.25.18-.62.57-.79.29-.19.66-.26,1.03-.08.33.12.65.49,1,1.02l1.45,2.23,3.92-2.55-1.52-2.35c-.34-.53-.45-.96-.47-1.36.11-.74.83-1.29,1.6-1.12l.1.02c.33.12.65.49.96.96l4.27,6.57c.34.53.45.96.43,1.3-.11.74-.77,1.25-1.5,1.14-.1-.02-.16.02-.19-.04-.33-.12-.71-.46-1.02-.92l-1.56-2.4-3.8,2.47.08.12Z"/><path class="c" d="M131.77-16.44c.34.53.45.96.47,1.36-.11.74-.71,1.21-1.45,1.11-.1-.02-.16.02-.19-.04-.33-.12-.71-.46-1.05-.98l-4.42-6.8c-.3-.47-.45-.96-.49-1.27.02-.35.2-.71.53-.85.23-.15.45-.21.76-.24.35.02.64.09.93.15l7.6,2.73-2.97-4.57c-.3-.47-.51-.92-.49-1.27.08-.64.69-1.12,1.39-1.07l.19.04c.33.12.65.49.96.96l4.53,6.98c.3.47.47.86.45,1.21s-.24.66-.53.85c-.23.15-.51.25-.76.24-.35-.02-.64-.09-.97-.21l-7.37-2.63,2.89,4.46M121.76-9.94c.34.53.49,1.01.51,1.42-.11.74-.77,1.25-1.5,1.14-.1-.02-.16.02-.19-.04-.37-.18-.71-.46-1.09-1.04l-4.38-6.74c-.3-.47-.45-.96-.49-1.27.02-.35.24-.66.53-.85.23-.15.45-.21.7-.2.35.02.64.09.93.15l7.47,2.66-2.89-4.46c-.34-.53-.49-1.01-.51-1.42.07-.79.89-1.33,1.6-1.12l.1.02c.37.18.65.49,1,1.02l4.53,6.98c.3.47.47.86.41,1.15-.02.35-.24.66-.53.85-.23.15-.51.25-.76.24-.35-.02-.64-.09-.97-.21l-7.33-2.58,2.82,4.34.06-.04ZM111.81-6.81l2.28-1.48-3.4-2.8,1.11,4.28ZM112.48-4.5l.26,1.17c.13.33.11.68.05.97-.06.29-.26.5-.49.65-.29.19-.6.22-.95.2-.29-.06-.6-.28-.79-.57-.08-.12-.15-.23-.17-.39-.08-.12-.06-.21-.13-.33l-1.86-8.38c-.07-.37-.07-.87,0-1.42.14-.42.42-.77.77-1s.78-.34,1.16-.26c.44.04.91.24,1.25.52l6.86,5.3c.13.08.21.2.38.33.13.08.17.14.25.26.19.29.23.6.16.89-.12.33-.28.6-.57.79-.23.15-.6.22-.85.22-.39-.08-.69-.3-.94-.55l-.86-.69s-3.51,2.28-3.51,2.28ZM98.84,4.61l-3.06-7.27c-.23-.6-.38-1.09-.29-1.48s.36-.73.77-1c.35-.23.78-.34,1.19-.35.44.04.85.28,1.14.6L103.74-.15l-2.39-6.62c-.17-.39-.22-.86-.08-1.28s.42-.77.75-.9c.47-.3.9-.41,1.28-.33s.83.38,1.33.89l5.32,5.88c.08.12.17.14.25.26l.15.23c.19.29.26.66.24,1.01-.08.39-.34.64-.63.83s-.6.22-.89.16c-.42-.14-.73-.36-.96-.71l-4.4-5.23c.96,2.63,1.58,4.48,1.95,5.57.38,1.09.52,1.83.56,2.14.02.16-.02.35-.16.52-.14.17-.28.35-.51.5-.29.19-.62.32-.97.3-.39-.08-.69-.3-.94-.55l-5.21-4.95,2.86,6.07c.28.57.4.99.33,1.28-.02.35-.24.66-.53.85s-.66.26-.95.2c-.39-.08-.64-.34-.83-.63l-.19-.29c-.13-.08-.15-.23-.27-.41h0ZM91.44-1.92c.53-.34,1.01-.49,1.42-.5s.71.2.94.55c.19.29.26.66.09,1.03s-.49.65-1.08,1.03l-1.87,1.22,1.18,1.82,1.52-.99c.53-.34.95-.45,1.32-.53.35.02.71.2.85.53.19.29.26.66.14.99-.12.33-.49.65-1.02.99l-1.52.99,1.18,1.82,1.93-1.25c.53-.34.97-.55,1.38-.56s.71.2.9.5.26.66.09,1.03-.63.57-1.15.92l-2.63,1.71c-.59.38-1.07.53-1.42.5-.35-.02-.69-.3-1.04-.83l-4.38-6.74c-.38-.59-.53-1.07-.45-1.46.08-.39.42-.77,1-1.15l2.61-1.61ZM87.64,8.88l-.76.49c-.53.34-.92.51-1.26.49-.35-.02-.66-.24-.85-.53s-.26-.66-.14-.99c.12-.33.43-.61.96-.96l1.58-1.03c.53-.34.95-.45,1.34-.37.39.08.73.36,1.04.83.84,1.29,1.11,2.61.89,3.93-.23,1.32-1.01,2.41-2.3,3.25s-2.65,1.05-4.04.7-2.56-1.25-3.51-2.72c-.95-1.47-1.3-2.91-1.04-4.41.25-1.41,1.11-2.64,2.52-3.55.94-.61,1.87-.96,2.78-.97.89.09,1.51.27,1.85.8.15.23.25.51.22.86-.06.29-.16.52-.45.71-.18.11-.6.22-1.36.22-.66.01-1.26.24-1.83.52-.64.42-1.14,1.07-1.2,1.86-.07.79.12,1.59.69,2.47s1.2,1.47,2.01,1.69c.75.26,1.53.17,2.19-.34.47-.3.88-.82,1-1.4.14-.42.03-1.1-.33-1.54h0ZM75.29,16.9l2.28-1.48-3.4-2.8,1.11,4.28ZM75.96,19.22l.26,1.17c.13.33.11.68.05.97s-.26.5-.49.65c-.29.19-.6.22-.95.2-.29-.06-.6-.28-.79-.57-.08-.12-.15-.23-.17-.39-.08-.12-.06-.21-.13-.33l-1.92-8.34c-.01-.41,0-.91.05-1.45.14-.42.42-.77.77-1s.78-.34,1.16-.26c.44.04.91.24,1.25.52l6.86,5.3c.17.14.31.22.38.33s.17.14.25.26c.19.29.23.6.16.89-.12.33-.28.6-.57.79-.23.15-.6.22-.85.22-.39-.08-.69-.3-.94-.55l-.86-.69-3.51,2.28ZM65.22,23.44l1.56,2.4c.34.53.51.92.49,1.27s-.2.71-.53.85c-.25.25-.66.26-1.05.18-.33-.12-.65-.49-.96-.96l-4.3-6.63c-.34-.53-.51-.92-.53-1.32,0-.25.18-.62.57-.79.29-.19.66-.26,1.03-.08.33.12.65.49,1,1.02l1.45,2.23,3.92-2.55-1.52-2.35c-.34-.53-.45-.96-.47-1.36.11-.74.83-1.29,1.6-1.12l.1.02c.33.12.65.49.96.96l4.27,6.57c.34.53.45.96.43,1.3-.11.74-.77,1.25-1.5,1.14-.1-.02-.16.02-.19-.04-.33-.12-.71-.46-1.02-.92l-1.56-2.4-3.8,2.47.08.12Z"/><path class="c" d="M230.98-16.44c.34.53.45.96.47,1.36-.11.74-.71,1.21-1.45,1.11-.1-.02-.16.02-.19-.04-.33-.12-.71-.46-1.05-.98l-4.42-6.8c-.3-.47-.45-.96-.49-1.27.02-.35.2-.71.53-.85.23-.15.45-.21.76-.24.35.02.64.09.93.15l7.6,2.73-2.97-4.57c-.3-.47-.51-.92-.49-1.27.08-.64.69-1.12,1.39-1.07l.19.04c.33.12.65.49.96.96l4.53,6.98c.3.47.47.86.45,1.21s-.24.66-.53.85c-.23.15-.51.25-.76.24-.35-.02-.64-.09-.97-.21l-7.37-2.63,2.89,4.46M220.98-9.94c.34.53.49,1.01.51,1.42-.11.74-.77,1.25-1.5,1.14-.1-.02-.16.02-.19-.04-.37-.18-.71-.46-1.09-1.04l-4.38-6.74c-.3-.47-.45-.96-.49-1.27.02-.35.24-.66.53-.85.23-.15.45-.21.7-.2.35.02.64.09.93.15l7.47,2.66-2.89-4.46c-.34-.53-.49-1.01-.51-1.42.07-.79.89-1.33,1.6-1.12l.1.02c.37.18.65.49,1,1.02l4.53,6.98c.3.47.47.86.41,1.15-.02.35-.24.66-.53.85-.23.15-.51.25-.76.24-.35-.02-.64-.09-.97-.21l-7.33-2.58,2.82,4.34.06-.04ZM211.02-6.81l2.28-1.48-3.4-2.8,1.11,4.28ZM211.69-4.5l.26,1.17c.13.33.11.68.05.97-.06.29-.26.5-.49.65-.29.19-.6.22-.95.2-.29-.06-.6-.28-.79-.57-.08-.12-.15-.23-.17-.39-.08-.12-.06-.21-.13-.33l-1.86-8.38c-.07-.37-.07-.87,0-1.42.14-.42.42-.77.77-1s.78-.34,1.16-.26c.44.04.91.24,1.25.52l6.86,5.3c.13.08.21.2.38.33.13.08.17.14.25.26.19.29.23.6.16.89-.12.33-.28.6-.57.79-.23.15-.6.22-.85.22-.39-.08-.69-.3-.94-.55l-.86-.69s-3.51,2.28-3.51,2.28ZM198.05,4.61l-3.06-7.27c-.23-.6-.38-1.09-.29-1.48s.36-.73.77-1c.35-.23.78-.34,1.19-.35.44.04.85.28,1.14.6l5.16,4.74-2.39-6.62c-.17-.39-.22-.86-.08-1.28s.42-.77.75-.9c.47-.3.9-.41,1.28-.33s.83.38,1.33.89l5.32,5.88c.08.12.17.14.25.26l.15.23c.19.29.26.66.24,1.01-.08.39-.34.64-.63.83s-.6.22-.89.16c-.42-.14-.73-.36-.96-.71l-4.4-5.23c.96,2.63,1.58,4.48,1.95,5.57.38,1.09.52,1.83.56,2.14.02.16-.02.35-.16.52-.14.17-.28.35-.51.5-.29.19-.62.32-.97.3-.39-.08-.69-.3-.94-.55l-5.21-4.95,2.86,6.07c.28.57.4.99.33,1.28-.02.35-.24.66-.53.85s-.66.26-.95.2c-.39-.08-.64-.34-.83-.63l-.19-.29c-.13-.08-.15-.23-.27-.41h0ZM190.65-1.92c.53-.34,1.01-.49,1.42-.5s.71.2.94.55c.19.29.26.66.09,1.03s-.49.65-1.08,1.03l-1.87,1.22,1.18,1.82,1.52-.99c.53-.34.95-.45,1.32-.53.35.02.71.2.85.53.19.29.26.66.14.99-.12.33-.49.65-1.02.99l-1.52.99,1.18,1.82,1.93-1.25c.53-.34.97-.55,1.38-.56s.71.2.9.5.26.66.09,1.03-.63.57-1.15.92l-2.63,1.71c-.59.38-1.07.53-1.42.5-.35-.02-.69-.3-1.04-.83l-4.38-6.74c-.38-.59-.53-1.07-.45-1.46.08-.39.42-.77,1-1.15l2.61-1.61ZM186.85,8.88l-.76.49c-.53.34-.92.51-1.26.49-.35-.02-.66-.24-.85-.53s-.26-.66-.14-.99c.12-.33.43-.61.96-.96l1.58-1.03c.53-.34.95-.45,1.34-.37.39.08.73.36,1.04.83.84,1.29,1.11,2.61.89,3.93-.23,1.32-1.01,2.41-2.3,3.25s-2.65,1.05-4.04.7-2.56-1.25-3.51-2.72c-.95-1.47-1.3-2.91-1.04-4.41.25-1.41,1.11-2.64,2.52-3.55.94-.61,1.87-.96,2.78-.97.89.09,1.51.27,1.85.8.15.23.25.51.22.86-.06.29-.16.52-.45.71-.18.11-.6.22-1.36.22-.66.01-1.26.24-1.83.52-.64.42-1.14,1.07-1.2,1.86-.07.79.12,1.59.69,2.47.57.88,1.2,1.47,2.01,1.69.75.26,1.53.17,2.19-.34.47-.3.88-.82,1-1.4.14-.42.03-1.1-.33-1.54h0ZM174.5,16.9l2.28-1.48-3.4-2.8,1.11,4.28ZM175.17,19.22l.26,1.17c.13.33.11.68.05.97s-.26.5-.49.65c-.29.19-.6.22-.95.2-.29-.06-.6-.28-.79-.57-.08-.12-.15-.23-.17-.39-.08-.12-.06-.21-.13-.33l-1.92-8.34c-.01-.41,0-.91.05-1.45.14-.42.42-.77.77-1s.78-.34,1.16-.26c.44.04.91.24,1.25.52l6.86,5.3c.17.14.31.22.38.33s.17.14.25.26c.19.29.23.6.16.89-.12.33-.28.6-.57.79-.23.15-.6.22-.85.22-.39-.08-.69-.3-.94-.55l-.86-.69-3.51,2.28ZM164.43,23.44l1.56,2.4c.34.53.51.92.49,1.27s-.2.71-.53.85c-.25.25-.66.26-1.05.18-.33-.12-.65-.49-.96-.96l-4.3-6.63c-.34-.53-.51-.92-.53-1.32,0-.25.18-.62.57-.79.29-.19.66-.26,1.03-.08.33.12.65.49,1,1.02l1.45,2.23,3.92-2.55-1.52-2.35c-.34-.53-.45-.96-.47-1.36.11-.74.83-1.29,1.6-1.12l.1.02c.33.12.65.49.96.96l4.27,6.57c.34.53.45.96.43,1.3-.11.74-.77,1.25-1.5,1.14-.1-.02-.16.02-.19-.04-.33-.12-.71-.46-1.02-.92l-1.56-2.4-3.8,2.47.08.12Z"/><path class="c" d="M32.56,112.53c.34.53.45.96.47,1.36-.11.74-.71,1.21-1.45,1.11-.1-.02-.16.02-.19-.04-.33-.12-.71-.46-1.05-.98l-4.42-6.8c-.3-.47-.45-.96-.49-1.27.02-.35.2-.71.53-.85.23-.15.45-.21.76-.24.35.02.64.09.93.15l7.6,2.73-2.97-4.57c-.3-.47-.51-.92-.49-1.27.08-.64.69-1.12,1.39-1.07l.19.04c.33.12.65.49.96.96l4.53,6.98c.3.47.47.86.45,1.21s-.24.66-.53.85c-.23.15-.51.25-.76.24-.35-.02-.64-.09-.97-.21l-7.37-2.63,2.89,4.46M22.55,119.03c.34.53.49,1.01.51,1.42-.11.74-.77,1.25-1.5,1.14-.1-.02-.16.02-.19-.04-.37-.18-.71-.46-1.09-1.04l-4.38-6.74c-.3-.47-.45-.96-.49-1.27.02-.35.24-.66.53-.85.23-.15.45-.21.7-.2.35.02.64.09.93.15l7.47,2.66-2.89-4.46c-.34-.53-.49-1.01-.51-1.42.07-.79.89-1.33,1.6-1.12l.1.02c.37.18.65.49,1,1.02l4.53,6.98c.3.47.47.86.41,1.15-.02.35-.24.66-.53.85-.23.15-.51.25-.76.24-.35-.02-.64-.09-.97-.21l-7.33-2.58,2.82,4.34.06-.04ZM12.6,122.16l2.28-1.48-3.4-2.8,1.11,4.28ZM13.27,124.48l.26,1.17c.13.33.11.68.05.97-.06.29-.26.5-.49.65-.29.19-.6.22-.95.2-.29-.06-.6-.28-.79-.57-.08-.12-.15-.23-.17-.39-.08-.12-.06-.21-.13-.33l-1.86-8.38c-.07-.37-.07-.87,0-1.42.14-.42.42-.77.77-1s.78-.34,1.16-.26c.44.04.91.24,1.25.52l6.86,5.3c.13.08.21.2.38.33.13.08.17.14.25.26.19.29.23.6.16.89-.12.33-.28.6-.57.79-.23.15-.6.22-.85.22-.39-.08-.69-.3-.94-.55l-.86-.69s-3.51,2.28-3.51,2.28ZM-.37,133.59l-3.06-7.27c-.23-.6-.38-1.09-.29-1.48s.36-.73.77-1c.35-.23.78-.34,1.19-.35.44.04.85.28,1.14.6l5.16,4.74-2.39-6.62c-.17-.39-.22-.86-.08-1.28s.42-.77.75-.9c.47-.3.9-.41,1.28-.33s.83.38,1.33.89l5.32,5.88c.08.12.17.14.25.26l.15.23c.19.29.26.66.24,1.01-.08.39-.34.64-.63.83s-.6.22-.89.16c-.42-.14-.73-.36-.96-.71l-4.4-5.23c.96,2.63,1.58,4.48,1.95,5.57s.52,1.83.56,2.14c.02.16-.02.35-.16.52-.14.17-.28.35-.51.5-.29.19-.62.32-.97.3-.39-.08-.69-.3-.94-.55l-5.21-4.95,2.86,6.07c.28.57.4.99.33,1.28-.02.35-.24.66-.53.85s-.66.26-.95.2c-.39-.08-.64-.34-.83-.63l-.19-.29c-.13-.08-.15-.23-.27-.41H-.37ZM-7.77,127.05c.53-.34,1.01-.49,1.42-.5s.71.2.94.55c.19.29.26.66.09,1.03s-.49.65-1.08,1.03l-1.87,1.22,1.18,1.82,1.52-.99c.53-.34.95-.45,1.32-.53.35.02.71.2.85.53.19.29.26.66.14.99-.12.33-.49.65-1.02.99l-1.52.99,1.18,1.82,1.93-1.25c.53-.34.97-.55,1.38-.56s.71.2.9.5.26.66.09,1.03-.63.57-1.15.92l-2.63,1.71c-.59.38-1.07.53-1.42.5-.35-.02-.69-.3-1.04-.83l-4.38-6.74c-.38-.59-.53-1.07-.45-1.46.08-.39.42-.77,1-1.15l2.61-1.61ZM-11.57,137.86l-.76.49c-.53.34-.92.51-1.26.49-.35-.02-.66-.24-.85-.53s-.26-.66-.14-.99c.12-.33.43-.61.96-.96l1.58-1.03c.53-.34.95-.45,1.34-.37.39.08.73.36,1.04.83.84,1.29,1.11,2.61.89,3.93-.23,1.32-1.01,2.41-2.3,3.25s-2.65,1.05-4.04.7c-1.39-.35-2.56-1.25-3.51-2.72-.95-1.47-1.3-2.91-1.04-4.41.25-1.41,1.11-2.64,2.52-3.55.94-.61,1.87-.96,2.78-.97.89.09,1.51.27,1.85.8.15.23.25.51.22.86-.06.29-.16.52-.45.71-.18.11-.6.22-1.36.22-.66.01-1.26.24-1.83.52-.64.42-1.14,1.07-1.2,1.86-.07.79.12,1.59.69,2.47.57.88,1.2,1.47,2.01,1.69.75.26,1.53.17,2.19-.34.47-.3.88-.82,1-1.4.14-.42.03-1.1-.33-1.54h0ZM-23.92,145.88l2.28-1.48-3.4-2.8,1.11,4.28ZM-23.25,148.2l.26,1.17c.13.33.11.68.05.97s-.26.5-.49.65c-.29.19-.6.22-.95.2-.29-.06-.6-.28-.79-.57-.08-.12-.15-.23-.17-.39-.08-.12-.06-.21-.13-.33l-1.92-8.34c-.01-.41,0-.91.05-1.45.14-.42.42-.77.77-1s.78-.34,1.16-.26c.44.04.91.24,1.25.52l6.86,5.3c.17.14.31.22.38.33s.17.14.25.26c.19.29.23.6.16.89-.12.33-.28.6-.57.79-.23.15-.6.22-.85.22-.39-.08-.69-.3-.94-.55l-.86-.69-3.51,2.28ZM-33.99,152.42l1.56,2.4c.34.53.51.92.49,1.27s-.2.71-.53.85c-.25.25-.66.26-1.05.18-.33-.12-.65-.49-.96-.96l-4.3-6.63c-.34-.53-.51-.92-.53-1.32,0-.25.18-.62.57-.79.29-.19.66-.26,1.03-.08.33.12.65.49,1,1.02l1.45,2.23,3.92-2.55-1.52-2.35c-.34-.53-.45-.96-.47-1.36.11-.74.83-1.29,1.6-1.12l.1.02c.33.12.65.49.96.96l4.27,6.57c.34.53.45.96.43,1.3-.11.74-.77,1.25-1.5,1.14-.1-.02-.16.02-.19-.04-.33-.12-.71-.46-1.02-.92l-1.56-2.4-3.8,2.47.08.12Z"/></g></svg>